<?xml version="1.0" standalone="yes"?>
<svg xmlns="http://www.w3.org/2000/svg" width="1000" height="1000">
<path style="fill:#010101; stroke:none;" d="M0 0L0 1000L1000 1000L1000 0L0 0z"/>
<path style="fill:#fd6f31; stroke:none;" d="M62 320C71.9626 322.945 84.6311 321 95 321C98.1998 321 103.568 321.996 106.301 319.972C109.616 317.518 111.431 310.63 113.247 307C117.848 297.803 122.91 288.816 128.2 280C144.568 252.719 163.463 226.537 186 204L186 321L351 321L351 157L351 113L352.028 95.3936L368 88.3333L417 76L417 321L582 321L582 76C598.7 77.3292 616.163 83.0737 632 88.3333C636.567 89.8502 645.188 91.077 647.972 95.3936C650.653 99.55 649 108.222 649 113L649 156L649 321L814 321L814 204C836.537 226.537 855.432 252.719 871.8 280C877.09 288.816 882.154 297.803 886.753 307C888.578 310.65 890.259 317.551 893.649 319.972C896.454 321.975 901.747 321 905 321C915.369 321 928.037 322.945 938 320C932.883 302.099 922.446 284.122 913.281 268C892.581 231.588 867.648 197.648 838 168C697.139 27.1393 481.481 -13.0225 300 70.3087C248.212 94.0882 202.185 127.815 162 168C132.352 197.648 107.419 231.588 86.7191 268C77.5541 284.122 67.1173 302.1 62 320z"/>
<path style="fill:#010101; stroke:none;" d="M287 876L287 773C287 762.925 282.975 741.561 288.603 733.039C294.921 723.474 309.061 716.085 318 708.997C339.591 691.876 361.169 674.694 383 657.881C391.062 651.673 399.027 645.319 407 638.997C410.394 636.306 415.513 633.416 416.682 628.961C420.829 613.152 417 591.376 417 575L417 457L417 76C400.643 77.3018 383.524 82.8771 368 88.0008C363.59 89.4564 354.87 90.6773 352.028 94.6489C348.148 100.071 351 115.444 351 122L351 196L351 479L351 553C351 560.494 353.849 575.529 349.397 581.826C345.635 587.147 338.131 591.378 333 595.35C322.284 603.644 311.683 612.088 301 620.424C265.9 647.815 230.885 675.341 196 703.003C183.378 713.012 170.763 723.052 158 732.881C154.602 735.498 145.519 740.402 145.113 745.089C144.792 748.805 149.288 753.214 151.294 756C158.002 765.316 165.259 774.288 172.729 783C202.969 818.268 243.633 857.313 287 876M582 76L582 541L582 668L582 702L580.972 716.711L560 734.199L510 773.424L345 903C352.685 908.748 364.865 910.979 374 913.72C397.866 920.88 422.246 926.193 447 929.155C559.338 942.598 672.613 911.706 763 843.626C789.62 823.576 813.959 800 834.8 774C840.429 766.977 853.605 755.25 854.839 746.039C855.465 741.367 847.126 736.864 844 734.424C831.307 724.52 818.582 714.646 806 704.6C770.544 676.292 734.769 648.337 699 620.424C688.317 612.088 677.716 603.644 667 595.35C661.869 591.378 654.365 587.147 650.603 581.826C646.151 575.529 649 560.494 649 553L649 479L649 196L649 122C649 115.444 651.852 100.071 647.972 94.6489C645.13 90.6774 636.41 89.4564 632 88.0008C616.35 82.8356 598.554 76.7125 582 76M185 204C113.976 275.031 74.8761 375.896 68.0895 475C65.5967 511.403 72.1408 546.072 75 582C102.999 565.893 128.734 540.773 154 520.6C162.82 513.558 179.704 505.031 184.972 494.961C187.801 489.553 186 479.975 186 474L186 424L186 269L186 225C186 218.58 187.497 209.951 185 204M814 204L814 413L814 471C814 477.701 811.867 488.918 815.028 494.961C820.296 505.031 837.18 513.558 846 520.6C871.266 540.773 897.001 565.892 925 582C927.842 546.292 933.544 512.156 931.961 476C928.929 406.759 906.764 337.269 871.2 278C856.424 253.376 837.815 220.776 814 204z"/>
<path style="fill:#fd492f; stroke:none;" d="M62 320L43.5787 373L36 408L78 408C80.5079 377.296 98.0502 350.066 106 321L62 320M894 321C902.046 350.419 918.019 377.172 922 408L964 408L956.421 373L938 320L894 321M186 321L186 408L351 408L351 321L186 321M417 321L417 408L582 408L582 321L417 321M649 321L649 408L814 408L814 321L649 321z"/>
<path style="fill:#ff2c2d; stroke:none;" d="M35 407L27 495L68 495L77 408L35 407M964 407L923 408L932 495L973 495L969 434L964 407M186 408L186 495L351 495L351 408L186 408M417 408L417 495L582 495L582 408L417 408M649 408L649 495L814 495L814 408L649 408z"/>
<path style="fill:#ff042b; stroke:none;" d="M27 495C27 566.241 40.4528 634.979 70.3086 700C88.7252 740.109 113.282 777.752 142.285 811C279.013 967.732 505.707 1015.55 695 931.86C744.7 909.887 791.551 878.449 830 840C872.222 797.778 907.629 749.807 931.86 695C960.093 631.145 973 564.583 973 495L932 495L925 582C900.236 562.038 874.923 542.759 850 522.997C839.653 514.792 826.5 499.89 814 495.589C800.31 490.878 778.499 495 764 495L649 495L649 555C649 562.455 646.832 573.944 649.603 580.91C651.143 584.778 655.88 587.315 659 589.801C666.955 596.139 674.957 602.425 683 608.65C711.516 630.723 739.571 653.391 768 675.576C789.712 692.518 811.478 709.417 833 726.6C837.815 730.445 853.297 738.707 854.129 745.089C855.137 752.818 839.349 767.326 834.8 773C812.847 800.388 787.081 824.845 759 845.873C670.294 912.3 557.9 942.306 448 929.155C414.55 925.152 375.102 918.862 345 903C366.787 891.878 386.819 871.213 406 856.003C443.87 825.974 482.231 796.555 520 766.4C534.58 754.758 549.408 743.427 564 731.801C569.08 727.753 578.791 722.859 581.397 716.711C583.639 711.418 582 702.688 582 697L582 652L582 495L417 495L417 594C417 603.159 420.748 623.201 415.397 630.829C408.245 641.025 392.858 649.527 383 657.119C361.176 673.926 339.544 691.034 318 708.199C309.433 715.025 293.145 723.258 288.028 733.039C283.019 742.615 287 763.233 287 774L287 876C244.782 850.156 205.961 820.797 173.579 783C166.093 774.262 158.774 765.316 152.011 756C150.034 753.277 145.399 748.749 145.871 745.089C146.694 738.714 162.192 730.439 167 726.6C188.522 709.417 210.288 692.518 232 675.576C260.429 653.391 288.484 630.723 317 608.65C325.043 602.425 333.046 596.139 341 589.801C344.12 587.315 348.857 584.778 350.397 580.91C353.168 573.944 351 562.455 351 555L351 495L236 495C221.501 495 199.69 490.878 186 495.589C173.5 499.89 160.347 514.792 150 522.997C125.077 542.759 99.7646 562.038 75 582L68 495L27 495z"/>
</svg>
